<svg width="67" height="24" viewBox="0 0 67 24" fill="none" xmlns="http://www.w3.org/2000/svg">
<path d="M0 0H54.5C61.1274 0 66.5 5.37258 66.5 12C66.5 18.6274 61.1274 24 54.5 24H0V0Z" fill="black"/>
<path d="M27.5 16H26.408L22.016 9.34V16H20.924V7.624H22.016L26.408 14.272V7.624H27.5V16ZM35.3615 12.46C35.3615 12.668 35.3495 12.888 35.3255 13.12H30.0695C30.1095 13.768 30.3295 14.276 30.7295 14.644C31.1375 15.004 31.6295 15.184 32.2055 15.184C32.6775 15.184 33.0695 15.076 33.3815 14.86C33.7015 14.636 33.9255 14.34 34.0535 13.972H35.2295C35.0535 14.604 34.7015 15.12 34.1735 15.52C33.6455 15.912 32.9895 16.108 32.2055 16.108C31.5815 16.108 31.0215 15.968 30.5255 15.688C30.0375 15.408 29.6535 15.012 29.3735 14.5C29.0935 13.98 28.9535 13.38 28.9535 12.7C28.9535 12.02 29.0895 11.424 29.3615 10.912C29.6335 10.4 30.0135 10.008 30.5015 9.736C30.9975 9.456 31.5655 9.316 32.2055 9.316C32.8295 9.316 33.3815 9.452 33.8615 9.724C34.3415 9.996 34.7095 10.372 34.9655 10.852C35.2295 11.324 35.3615 11.86 35.3615 12.46ZM34.2335 12.232C34.2335 11.816 34.1415 11.46 33.9575 11.164C33.7735 10.86 33.5215 10.632 33.2015 10.48C32.8895 10.32 32.5415 10.24 32.1575 10.24C31.6055 10.24 31.1335 10.416 30.7415 10.768C30.3575 11.12 30.1375 11.608 30.0815 12.232H34.2335ZM45.5629 9.424L43.5109 16H42.3829L40.7989 10.78L39.2149 16H38.0869L36.0229 9.424H37.1389L38.6509 14.944L40.2829 9.424H41.3989L42.9949 14.956L44.4829 9.424H45.5629Z" fill="white"/>
</svg>
